<svg width="186" height="80" viewBox="0 0 186 80" fill="none" xmlns="http://www.w3.org/2000/svg">
<path fill-rule="evenodd" clip-rule="evenodd" d="M69.294 1.01356H116.706V48.1481H69.294V1.01356ZM117.725 49.1615V0H68.2744V49.1615H117.725ZM176.18 73.5451H182.375L179.35 65.1037L176.18 73.5451ZM186 79.6679H184.443L182.48 73.9548L176.012 74.0379L173.91 79.6679H173.005L179 64.7812L180.424 64.3668L186 79.6679ZM161.185 72.6114C161.661 72.6114 162.098 72.5969 162.494 72.5686C162.892 72.5403 163.248 72.4968 163.561 72.4394H163.563C163.871 72.3805 164.149 72.309 164.394 72.2249C164.645 72.1387 164.859 72.0393 165.034 71.9265C165.121 71.8722 165.205 71.808 165.284 71.7356C165.362 71.6643 165.437 71.5838 165.506 71.4952C165.577 71.4068 165.642 71.3066 165.702 71.1961C165.761 71.0869 165.815 70.9655 165.865 70.8344L165.868 70.8274C165.913 70.6967 165.955 70.5517 165.991 70.3937C166.026 70.2405 166.056 70.0765 166.08 69.9037C166.105 69.7284 166.122 69.5326 166.134 69.3191C166.146 69.1006 166.151 68.8752 166.151 68.6436C166.151 68.3321 166.128 68.0405 166.081 67.769C166.034 67.4903 165.962 67.2357 165.868 67.0059C165.774 66.7759 165.656 66.565 165.515 66.3733C165.375 66.1822 165.214 66.0132 165.034 65.8656C164.855 65.7195 164.656 65.593 164.438 65.4868C164.222 65.3811 163.988 65.2957 163.739 65.2311C163.489 65.1671 163.226 65.1185 162.949 65.0869C162.673 65.0552 162.384 65.039 162.082 65.039C161.961 65.039 161.825 65.0408 161.665 65.0448C161.524 65.0483 161.401 65.0537 161.299 65.061L160.934 65.0927L160.225 65.1616V72.6114H161.185ZM163.222 73.6686C163.113 73.4776 163.005 73.2877 162.902 73.1005L160.225 73.1006V79.668H158.7V64.7247C158.94 64.7072 159.182 64.6919 159.428 64.6785C159.791 64.6587 160.159 64.6416 160.534 64.6266C160.926 64.611 161.308 64.5991 161.68 64.5916C162.02 64.5846 162.394 64.5811 162.802 64.5811C163.241 64.5811 163.652 64.6048 164.033 64.6515C164.413 64.6983 164.766 64.7681 165.089 64.8599C165.41 64.9516 165.7 65.0615 165.957 65.1896C166.212 65.3169 166.441 65.4634 166.641 65.6301C166.842 65.7989 167.018 65.9844 167.167 66.1876C167.316 66.3897 167.44 66.6106 167.537 66.8525C167.636 67.0946 167.71 67.3545 167.759 67.632C167.809 67.9123 167.833 68.2119 167.833 68.5297C167.833 68.8391 167.812 69.1292 167.77 69.4007C167.728 69.6705 167.666 69.9211 167.585 70.1522C167.501 70.3857 167.404 70.6056 167.293 70.8101C167.183 71.0139 167.058 71.2045 166.922 71.381C166.782 71.5561 166.63 71.7191 166.467 71.8679C166.307 72.0137 166.133 72.1475 165.946 72.2679L165.944 72.269C165.749 72.3975 165.553 72.5132 165.356 72.6156C165.159 72.7179 164.955 72.8108 164.743 72.8935L164.417 73.0207L164.592 73.3225C165.018 74.0544 165.421 74.733 165.804 75.378L165.94 75.6074C166.151 75.9619 166.37 76.3041 166.593 76.632C166.819 76.9639 167.045 77.2711 167.268 77.5543C167.496 77.8405 167.724 78.0973 167.953 78.3232C168.185 78.5525 168.421 78.7536 168.659 78.9242C168.908 79.1033 169.166 79.2391 169.43 79.3299C169.654 79.4061 169.883 79.4516 170.119 79.4651V79.6315L169.966 79.6701C169.833 79.7007 169.685 79.7277 169.525 79.7493H169.52C169.352 79.7745 169.186 79.7933 169.021 79.8053C168.857 79.8175 168.687 79.8236 168.511 79.8236C168.27 79.8236 168.05 79.8083 167.854 79.7771C167.66 79.7462 167.484 79.7 167.328 79.6383L167.323 79.6359C167.17 79.5788 167.017 79.4937 166.866 79.3822C166.708 79.266 166.55 79.1196 166.393 78.944C166.23 78.7619 166.059 78.5445 165.881 78.2927C165.702 78.0391 165.515 77.749 165.32 77.4244C165.129 77.1018 164.904 76.7107 164.643 76.2492C164.4 75.817 164.138 75.3453 163.861 74.8359C163.667 74.4509 163.443 74.0575 163.222 73.6686ZM150.45 72.1401C150.45 71.6369 150.423 71.1523 150.37 70.6865C150.318 70.2213 150.238 69.7774 150.133 69.3553C150.027 68.929 149.89 68.5301 149.723 68.1603C149.555 67.7883 149.357 67.4474 149.129 67.1385L149.127 67.1374C148.893 66.8241 148.63 66.5456 148.335 66.304C148.042 66.0615 147.717 65.8543 147.359 65.6828C147.003 65.5084 146.611 65.3781 146.186 65.2918C145.763 65.2061 145.31 65.1635 144.826 65.1635C144.417 65.1635 144.018 65.1863 143.631 65.2309C143.242 65.2756 142.866 65.3431 142.505 65.4321C142.137 65.5222 141.807 65.6365 141.512 65.7744C141.211 65.9152 140.949 66.0795 140.724 66.2662L140.72 66.2697C140.587 66.3839 140.466 66.5238 140.357 66.688C140.251 66.8461 140.156 67.0281 140.07 67.2318L140.069 67.2354C139.99 67.4315 139.918 67.6446 139.854 67.8747C139.792 68.1006 139.736 68.3439 139.688 68.6041C139.639 68.8636 139.598 69.1323 139.565 69.4086C139.532 69.6852 139.506 69.9756 139.484 70.2784C139.464 70.5675 139.448 70.8721 139.438 71.1922C139.426 71.5224 139.421 71.8385 139.421 72.14C139.421 73.1443 139.506 74.0714 139.677 74.9262L139.678 74.9286C139.767 75.3584 139.884 75.7619 140.03 76.1388C140.179 76.522 140.354 76.8735 140.559 77.1923C140.766 77.5184 141.009 77.8085 141.287 78.063C141.563 78.3165 141.877 78.5359 142.226 78.7224C142.576 78.9073 142.968 79.0457 143.399 79.1366C143.827 79.2269 144.295 79.2723 144.8 79.2723C145.754 79.2723 146.567 79.1861 147.243 79.014L147.244 79.0128C147.587 78.925 147.913 78.7997 148.221 78.6396C148.533 78.4772 148.827 78.2799 149.1 78.0502C149.235 77.9376 149.358 77.7975 149.468 77.6293C149.574 77.4678 149.67 77.2816 149.755 77.0708L149.756 77.0672C149.837 76.8579 149.912 76.6343 149.979 76.3987C150.044 76.1692 150.102 75.9245 150.151 75.6667C150.205 75.4019 150.251 75.1306 150.288 74.8515C150.327 74.5652 150.358 74.2722 150.381 73.9727C150.404 73.6789 150.421 73.3733 150.433 73.0577C150.445 72.734 150.45 72.4291 150.45 72.1401ZM152.132 72.1348C152.132 72.7387 152.093 73.3112 152.015 73.8508C151.937 74.3954 151.821 74.9072 151.668 75.3844C151.513 75.8601 151.32 76.3016 151.09 76.7081C150.861 77.1142 150.595 77.4825 150.296 77.812L150.295 77.8132C149.997 78.1439 149.658 78.4367 149.281 78.6924C148.902 78.9489 148.485 79.167 148.03 79.3469C147.571 79.5261 147.075 79.6607 146.54 79.7506C146.003 79.8408 145.424 79.8859 144.805 79.8859C143.561 79.8859 142.488 79.7017 141.597 79.3335C141.152 79.1497 140.749 78.9284 140.389 78.6704C140.029 78.4128 139.71 78.1175 139.432 77.7839C139.148 77.4469 138.903 77.0774 138.696 76.6769C138.489 76.2739 138.317 75.8341 138.181 75.3573C138.044 74.8762 137.941 74.3685 137.873 73.8365C137.805 73.3032 137.77 72.7355 137.77 72.1349C137.77 71.5352 137.805 70.9704 137.873 70.4411C137.942 69.9106 138.046 69.4085 138.185 68.9358C138.324 68.4676 138.5 68.0344 138.713 67.6384C138.924 67.2474 139.172 66.8904 139.457 66.5696L139.459 66.5685C139.742 66.2451 140.066 65.9591 140.428 65.7105C140.792 65.4607 141.196 65.2482 141.638 65.0735C142.083 64.8994 142.57 64.7686 143.1 64.6815C143.632 64.5939 144.211 64.5499 144.836 64.5499C146.069 64.5499 147.139 64.7243 148.051 65.0735C148.507 65.2503 148.923 65.4634 149.299 65.7128C149.676 65.9625 150.014 66.2496 150.313 66.5743C150.613 66.8977 150.876 67.2561 151.101 67.6473C151.328 68.0435 151.519 68.4765 151.673 68.9437C151.826 69.4142 151.941 69.9153 152.018 70.4456C152.094 70.9766 152.132 71.5399 152.132 72.1348ZM124.241 72.6114C124.718 72.6114 125.154 72.5969 125.55 72.5686C125.948 72.5403 126.304 72.4968 126.617 72.4394H126.619C126.928 72.3805 127.205 72.309 127.45 72.2249C127.701 72.1387 127.915 72.0393 128.09 71.9265C128.177 71.8722 128.261 71.808 128.34 71.7356C128.418 71.6643 128.493 71.5838 128.562 71.4952C128.633 71.4068 128.698 71.3066 128.758 71.1961C128.817 71.0869 128.872 70.9655 128.921 70.8344L128.924 70.8274C128.97 70.6967 129.011 70.5517 129.047 70.3937C129.082 70.2405 129.112 70.0765 129.136 69.9037C129.161 69.7284 129.179 69.5326 129.19 69.3191C129.202 69.1006 129.208 68.8752 129.208 68.6436C129.208 68.3321 129.184 68.0405 129.138 67.769C129.09 67.4903 129.018 67.2357 128.924 67.0059C128.83 66.7759 128.712 66.565 128.571 66.3733C128.431 66.1822 128.27 66.0132 128.09 65.8656C127.911 65.7195 127.712 65.593 127.494 65.4868C127.278 65.3811 127.044 65.2957 126.795 65.2311C126.545 65.1671 126.282 65.1185 126.005 65.0869C125.729 65.0552 125.44 65.039 125.138 65.039C125.017 65.039 124.881 65.0408 124.721 65.0448C124.58 65.0483 124.457 65.0537 124.355 65.061L123.99 65.0927L123.281 65.1616V72.6114H124.241ZM126.278 73.6688C126.17 73.4777 126.062 73.2878 125.958 73.1005L123.281 73.1006V79.668H121.756V64.7247C121.996 64.7072 122.239 64.6919 122.484 64.6785C122.847 64.6587 123.215 64.6416 123.59 64.6266C123.982 64.611 124.365 64.5991 124.736 64.5916C125.076 64.5846 125.45 64.5811 125.858 64.5811C126.297 64.5811 126.708 64.6048 127.089 64.6515C127.47 64.6983 127.822 64.7681 128.145 64.8599C128.466 64.9516 128.756 65.0615 129.013 65.1896C129.268 65.3169 129.497 65.4634 129.697 65.6301C129.898 65.7989 130.074 65.9844 130.224 66.1876C130.372 66.3897 130.496 66.6106 130.593 66.8525C130.692 67.0946 130.766 67.3545 130.815 67.632C130.865 67.9123 130.889 68.2119 130.889 68.5297C130.889 68.8391 130.868 69.1292 130.826 69.4007C130.784 69.6705 130.722 69.9211 130.641 70.1522C130.558 70.3857 130.46 70.6056 130.349 70.8101C130.239 71.0139 130.114 71.2045 129.978 71.381C129.838 71.5561 129.687 71.7191 129.523 71.8679C129.363 72.0137 129.189 72.1475 129.003 72.2679L129 72.269C128.805 72.3975 128.609 72.5132 128.412 72.6156C128.216 72.7179 128.011 72.8108 127.799 72.8935L127.473 73.0207L127.648 73.3225C128.074 74.0544 128.477 74.733 128.86 75.378L128.996 75.6074C129.207 75.9619 129.426 76.3041 129.649 76.632C129.876 76.9639 130.101 77.2711 130.324 77.5543C130.552 77.8405 130.781 78.0973 131.009 78.3232C131.241 78.5525 131.477 78.7536 131.715 78.9242C131.965 79.1033 132.222 79.2391 132.487 79.3299C132.71 79.4061 132.939 79.4516 133.175 79.4651V79.6315L133.022 79.6701C132.889 79.7007 132.741 79.7277 132.581 79.7493H132.576C132.409 79.7745 132.243 79.7933 132.078 79.8053C131.913 79.8175 131.743 79.8236 131.567 79.8236C131.326 79.8236 131.106 79.8083 130.91 79.7771C130.716 79.7462 130.54 79.7 130.384 79.6383L130.379 79.6359C130.226 79.5788 130.073 79.4937 129.922 79.3822C129.764 79.266 129.607 79.1196 129.449 78.944C129.286 78.7619 129.115 78.5445 128.938 78.2927C128.759 78.0391 128.571 77.749 128.377 77.4244C128.185 77.1018 127.96 76.7107 127.7 76.2492C127.456 75.817 127.194 75.3453 126.917 74.8359C126.723 74.451 126.499 74.0576 126.278 73.6688ZM94.2625 73.5451H88.0683L91.2382 65.1037L94.2625 73.5451ZM96.3309 79.6679H97.8879L92.3124 64.3668L90.8878 64.7812L84.893 79.6679H85.798L87.8994 74.0379L94.3682 73.9548L96.3309 79.6679ZM68.0049 79.6679H75.8051L75.8741 79.171L69.5299 79.0472V72.0192L74.8363 71.8938L74.8982 71.4856L69.5299 71.4239V65.3244L75.3023 65.2461L75.3743 64.7056H68.0049V79.6679ZM56.3007 79.6679H57.8258V65.3282L62.5345 65.2027L62.6035 64.7056H51.5921L51.5199 65.2479L56.3006 65.325L56.3007 79.6679ZM44.6959 64.7056V79.6679H46.2209V64.7056H44.6959ZM36.107 79.6679H37.6321V64.7056H36.107V71.8954H26.8932V64.7056H25.3681V79.6679H26.8932V72.4468H36.107V79.6679ZM11.1052 71.4463C11.155 71.5976 11.1996 71.7242 11.2384 71.8282L13.9878 79.6679H15.6083L19.9228 64.7056H19.1013C18.8284 65.6879 18.5607 66.6794 18.2923 67.6731C17.7289 69.76 17.1627 71.8569 16.5394 73.8996C16.5138 73.9874 16.4876 74.0828 16.4621 74.1868C16.415 74.4617 16.309 74.8359 16.2124 75.1771C16.1674 75.3361 16.1244 75.488 16.0903 75.6192L16.0104 75.937C15.9775 76.0606 15.9454 76.1854 15.9048 76.358C15.7825 76.6741 15.6724 77.1564 15.5733 77.5908C15.5277 77.7907 15.4844 77.9806 15.4433 78.1393L15.1952 79.0861L14.8677 78.1639C14.7631 77.869 14.6579 77.564 14.5528 77.2521C14.4597 76.9752 14.364 76.6832 14.2669 76.3798L14.0148 75.6317C13.9499 75.4486 13.8878 75.2662 13.8265 75.0863L13.826 75.0848L13.7593 74.8864C13.716 74.7513 13.6631 74.6003 13.6119 74.4542L13.599 74.4172L13.5283 74.2132C13.4889 74.1071 13.4528 74.0048 13.4195 73.9071L13.3318 73.6403L10.8479 66.6353H9.89927L7.507 73.6391L7.4956 73.6742C7.40181 73.9632 7.30889 74.2495 7.21036 74.5371L7.02939 75.0808C6.96688 75.2642 6.90334 75.4504 6.83677 75.6375L6.71886 76.0044C6.62454 76.3118 6.52718 76.6152 6.42876 76.9214L6.41202 76.9735C6.297 77.3313 6.17738 77.7035 6.03674 78.1534L5.71385 79.1854L5.45647 78.1347C5.37707 77.8101 5.30113 77.5077 5.23003 77.2315C5.1544 76.9386 5.07787 76.6508 4.99969 76.3685L4.79998 75.6326C4.6155 74.9685 4.43662 74.3073 4.26139 73.6404L1.67618 64.7056H0L4.44493 79.6679H6.0704L8.71038 71.9107C8.78093 71.7134 8.85075 71.4982 8.93176 71.2486L8.93363 71.2428L9.00035 71.0371C9.08292 70.7677 9.1676 70.5036 9.24989 70.247L9.25939 70.2174L9.32084 70.0258C9.3699 69.8512 9.42773 69.6567 9.49548 69.4361C9.55677 69.2368 9.62169 69.0345 9.69023 68.83L9.98139 67.9608L10.2622 68.8324L10.6405 69.9927C10.6955 70.1483 10.7517 70.3172 10.8088 70.4954L10.9689 71.0088C11.0127 71.1577 11.0588 71.3046 11.1052 71.4463ZM114.637 75.5739C114.702 75.2262 114.734 74.8641 114.734 74.4886L113.303 74.4878V74.9346C113.303 75.2839 113.285 75.6172 113.251 75.9339C113.216 76.2535 113.164 76.5516 113.095 76.8271V76.8294C113.023 77.1123 112.93 77.3668 112.818 77.5924C112.704 77.8234 112.568 78.0227 112.413 78.1889L112.408 78.1937C112.227 78.3798 112.007 78.5401 111.75 78.6755C111.5 78.8068 111.214 78.9149 110.893 79.001H110.89C110.572 79.0827 110.235 79.144 109.877 79.1842C109.519 79.2245 109.142 79.2449 108.748 79.2449C108.428 79.2449 108.121 79.2286 107.83 79.1971C107.534 79.165 107.258 79.1168 107.005 79.0541L107.003 79.0529C106.739 78.9845 106.498 78.8931 106.279 78.778C106.058 78.6617 105.857 78.5188 105.674 78.3489C105.496 78.1846 105.338 77.9886 105.201 77.7643C105.065 77.5435 104.95 77.2956 104.857 77.0231L104.856 77.0196C104.768 76.7495 104.701 76.4429 104.656 76.1007C104.612 75.7614 104.59 75.3931 104.59 74.9971V74.488H103.128V74.7015C103.128 75.1964 103.16 75.6482 103.225 76.0563C103.289 76.4623 103.385 76.8311 103.513 77.1614L103.515 77.1637C103.639 77.4909 103.791 77.7852 103.969 78.0458C104.148 78.3069 104.354 78.538 104.587 78.7383C104.821 78.9375 105.079 79.1103 105.361 79.2558C105.646 79.403 105.953 79.5216 106.281 79.6109C106.615 79.7019 106.974 79.7716 107.358 79.8189C107.74 79.8659 108.144 79.8897 108.571 79.8897C109.089 79.8897 109.573 79.8534 110.021 79.7802C110.464 79.708 110.877 79.599 111.26 79.4532C111.647 79.3058 112.003 79.1343 112.324 78.939C112.643 78.7456 112.93 78.5281 113.185 78.287C113.442 78.0437 113.667 77.7798 113.86 77.4952C114.054 77.2097 114.215 76.9056 114.344 76.5833C114.475 76.2581 114.572 75.921 114.637 75.5739ZM102.026 29.4274C102.026 30.0113 101.976 30.5745 101.875 31.1153C101.774 31.6551 101.622 32.1789 101.419 32.6847C101.218 33.186 100.968 33.6588 100.666 34.103C100.365 34.5455 100.016 34.9561 99.6159 35.3344C99.2197 35.7094 98.7724 36.0477 98.2771 36.3485C97.777 36.6521 97.2248 36.9189 96.6228 37.1481C96.027 37.375 95.3837 37.5444 94.6949 37.6567C93.9976 37.7706 93.2452 37.8271 92.4399 37.8271C91.776 37.8271 91.1473 37.79 90.554 37.7169C89.9563 37.6434 89.3978 37.5349 88.8782 37.3934C88.3683 37.2546 87.8914 37.0702 87.4482 36.8412C87.0097 36.6148 86.6084 36.3462 86.2438 36.0362C85.882 35.7249 85.5604 35.3654 85.2829 34.9593C85.0061 34.5539 84.7692 34.0962 84.576 33.5874L84.574 33.5839C84.375 33.0702 84.2252 32.4967 84.1249 31.8652C84.0244 31.2305 83.974 30.5278 83.974 29.758V29.4262H86.2487V30.2178C86.2487 30.8338 86.2829 31.4065 86.3515 31.9342C86.4205 32.4664 86.5245 32.9432 86.6624 33.3633L86.6639 33.3689C86.8088 33.7928 86.9867 34.1783 87.1981 34.5217C87.4114 34.8706 87.6568 35.1754 87.934 35.431C88.2183 35.6952 88.5318 35.9174 88.8757 36.0983C89.2162 36.2773 89.5911 36.4194 90.0012 36.5258L90.0051 36.5278C90.3984 36.6254 90.8264 36.7003 91.287 36.7502C91.7406 36.7993 92.2176 36.8247 92.7158 36.8247C93.3286 36.8247 93.9141 36.793 94.4715 36.7301C95.0271 36.6676 95.5528 36.5724 96.047 36.4452H96.0509C96.5505 36.3115 96.9952 36.1432 97.3837 35.939C97.7845 35.7284 98.126 35.4791 98.408 35.1897L98.4153 35.1823C98.6571 34.9237 98.8677 34.6137 99.0461 34.2545C99.2201 33.9037 99.364 33.5079 99.4767 33.0679V33.0644C99.5833 32.6358 99.6647 32.1724 99.7188 31.6752C99.7723 31.1827 99.7998 30.6644 99.7998 30.121V29.4262H102.026V29.4274Z" fill="black"/>
</svg>
